<svg width="255" height="255" viewBox="0 0 255 255" fill="none" xmlns="http://www.w3.org/2000/svg">
<mask id="mask0" x="0" y="0" width="255" height="255">
<path fill-rule="evenodd" clip-rule="evenodd" d="M127.277 0.446533C56.9837 0.446533 0 57.4302 0 127.723C0 198.016 56.9837 255 127.277 255C197.569 255 254.553 198.016 254.553 127.723C254.553 57.4302 197.569 0.446533 127.277 0.446533Z" fill="white"/>
</mask>
<g mask="url(#mask0)">
<path fill-rule="evenodd" clip-rule="evenodd" d="M127.277 0.446533C56.9837 0.446533 0 57.4302 0 127.723C0 198.016 56.9837 255 127.277 255C197.569 255 254.553 198.016 254.553 127.723C254.553 57.4302 197.569 0.446533 127.277 0.446533Z" fill="url(#paint0_linear)"/>
</g>
<path fill-rule="evenodd" clip-rule="evenodd" d="M81.0048 162.222C97.4597 162.221 113.584 151.445 129.299 140.94C149.991 127.108 169.536 114.043 188.748 124.64C190.18 125.43 191.069 126.893 191.071 128.5C191.071 163.553 162.552 192.07 127.5 192.07C105.112 192.07 84.5256 180.237 73.0949 161.353C75.7404 161.948 78.3764 162.222 81.0048 162.222ZM125.701 116.06C105.009 129.891 85.4639 142.954 66.2517 132.36C64.8207 131.57 63.9306 130.106 63.9294 128.5C63.9294 93.4466 92.4466 64.9294 127.5 64.9294C149.888 64.9294 170.474 76.7627 181.905 95.6464C162.696 91.3286 143.927 103.877 125.701 116.06ZM127.5 43C80.3549 43 42 81.3549 42 128.5C42 175.645 80.3549 214 127.5 214C174.645 214 213 175.645 213 128.5C213 81.3549 174.645 43 127.5 43Z" fill="#ECECEC"/>
<defs>
<linearGradient id="paint0_linear" x1="0" y1="255" x2="254.553" y2="255" gradientUnits="userSpaceOnUse">
<stop stop-color="#009E7C"/>
<stop offset="1" stop-color="#60B67E"/>
</linearGradient>
</defs>
</svg>
